<svg width="1018" height="1024" viewBox="0 0 1018 1024" fill="none" xmlns="http://www.w3.org/2000/svg">
<g filter="url(#filter0_d)">
<rect x="406.586" width="650" height="400" rx="15" transform="rotate(45 406.586 0)" fill="black"/>
</g>
<path d="M185.099 270.376C186.528 271.805 187.313 273.311 187.454 274.895C187.624 276.479 187.298 278.006 186.478 279.477L184.314 278.034C184.866 276.917 185.078 275.814 184.951 274.725C184.852 273.636 184.399 272.689 183.593 271.883C182.476 270.765 181.083 270.306 179.414 270.504C177.745 270.702 176.077 271.635 174.408 273.304C172.753 274.958 171.749 276.613 171.396 278.268C171.056 279.936 171.523 281.407 172.796 282.68C173.856 283.741 174.967 284.299 176.126 284.356C177.314 284.412 178.368 283.981 179.287 283.062L181.09 284.865C179.69 286.265 178.099 286.894 176.317 286.753C174.549 286.626 172.831 285.728 171.162 284.059C169.508 282.404 168.801 280.424 169.041 278.119C169.296 275.828 170.491 273.615 172.626 271.479C174.761 269.344 176.954 268.213 179.202 268.085C181.465 267.944 183.431 268.708 185.099 270.376ZM192.763 292.041C193.683 291.122 194.149 290.273 194.163 289.495C194.178 288.718 193.817 287.961 193.082 287.226C192.36 286.504 191.625 286.066 190.875 285.91C190.154 285.755 189.482 285.988 188.86 286.61L187.015 284.765C188.57 283.209 190.366 283.082 192.403 284.383C193.025 284.779 193.633 285.274 194.227 285.868C195.486 287.127 196.15 288.428 196.221 289.771C196.292 291.115 195.677 292.437 194.376 293.738L187.842 300.272L186.399 298.829L187.927 296.963C186.018 297.627 184.25 297.146 182.623 295.52C181.534 294.431 180.962 293.25 180.905 291.977C180.863 290.719 181.294 289.637 182.199 288.732C183.104 287.827 184.172 287.48 185.402 287.692C186.647 287.919 187.814 288.576 188.903 289.665C189.991 290.754 190.847 291.977 191.469 293.335L192.763 292.041ZM190.409 294.396C189.687 293.109 188.952 292.091 188.202 291.341C187.453 290.591 186.71 290.118 185.975 289.92C185.24 289.722 184.582 289.913 184.002 290.492C182.729 291.765 182.814 293.123 184.257 294.565C185.077 295.386 186.067 295.796 187.227 295.796C188.415 295.796 189.475 295.329 190.409 294.396ZM198.906 296.02C199.74 295.186 200.759 294.875 201.961 295.087C203.177 295.313 204.393 296.034 205.609 297.25C206.826 298.467 207.519 299.669 207.688 300.857C207.872 302.059 207.589 303.063 206.84 303.869L205.206 302.235C205.998 301.189 205.68 299.952 204.252 298.523C203.559 297.83 202.866 297.448 202.173 297.378C201.494 297.321 200.971 297.477 200.603 297.844C200.25 298.198 200.087 298.643 200.115 299.181C200.158 299.704 200.398 300.369 200.836 301.175L202.194 303.89C202.788 305.021 203.099 306.026 203.127 306.902C203.184 307.779 202.845 308.585 202.109 309.321C201.388 310.042 200.356 310.325 199.012 310.169C197.683 310 196.346 309.243 195.003 307.899C193.659 306.556 192.91 305.212 192.754 303.869C192.613 302.511 192.995 301.337 193.9 300.348L195.512 301.96C194.904 302.624 194.678 303.36 194.833 304.166C195.017 304.972 195.477 305.743 196.212 306.478C196.947 307.214 197.711 307.666 198.503 307.836C199.295 308.005 199.903 307.878 200.327 307.454C200.766 307.016 200.957 306.542 200.9 306.033C200.843 305.524 200.582 304.866 200.115 304.06L198.8 301.429C197.555 299.138 197.591 297.335 198.906 296.02ZM212.893 308.777C214.986 308.042 216.818 308.459 218.388 310.029C219.59 311.231 220.127 312.56 220 314.017C219.887 315.487 219.144 316.909 217.772 318.28L211.811 324.241L210.157 322.587L216.118 316.626C217.094 315.65 217.596 314.681 217.624 313.72C217.666 312.772 217.256 311.867 216.393 311.004C215.531 310.142 214.47 309.816 213.212 310.029C211.967 310.227 210.701 310.969 209.414 312.256L204.62 317.05L202.944 315.374L217.391 300.928L219.066 302.604L212.893 308.777ZM235.842 321.585L229.669 327.758L241.803 327.546L244.115 329.859L232.278 330.028L231.132 343.562L228.969 341.399L229.987 330.071L227.314 330.113L222.499 334.929L220.802 333.231L234.145 319.888L235.842 321.585ZM246.584 345.861C247.503 344.942 247.969 344.094 247.984 343.316C247.998 342.538 247.637 341.781 246.902 341.046C246.18 340.325 245.445 339.886 244.696 339.731C243.974 339.575 243.303 339.808 242.68 340.431L240.835 338.585C242.39 337.03 244.186 336.902 246.223 338.203C246.845 338.599 247.453 339.094 248.047 339.688C249.306 340.947 249.971 342.248 250.041 343.591C250.112 344.935 249.497 346.257 248.196 347.558L241.662 354.092L240.22 352.649L241.747 350.783C239.838 351.447 238.07 350.967 236.444 349.34C235.355 348.251 234.782 347.07 234.725 345.798C234.683 344.539 235.114 343.457 236.019 342.552C236.924 341.647 237.992 341.3 239.223 341.513C240.467 341.739 241.634 342.396 242.723 343.485C243.812 344.574 244.667 345.798 245.29 347.155L246.584 345.861ZM244.229 348.216C243.508 346.929 242.772 345.911 242.023 345.161C241.273 344.412 240.531 343.938 239.795 343.74C239.06 343.542 238.402 343.733 237.822 344.313C236.55 345.585 236.635 346.943 238.077 348.386C238.897 349.206 239.887 349.616 241.047 349.616C242.235 349.616 243.295 349.149 244.229 348.216ZM258.454 353.446C256.856 351.848 254.77 352.28 252.196 354.74L247.253 359.683L245.577 358.007L255.739 347.846L257.414 349.522L255.463 351.474C257.386 350.569 258.991 350.759 260.278 352.046C260.688 352.457 261.014 352.909 261.254 353.404L259.536 354.953C259.253 354.387 258.892 353.885 258.454 353.446Z" fill="white"/>
<g filter="url(#filter1_i)">
<rect x="646.296" y="522.552" width="80" height="60" rx="10" transform="rotate(45 646.296 522.552)" fill="#DCDCDC"/>
</g>
<path d="M207.96 239.426C209.563 237.824 211.071 237.069 212.486 237.164C213.9 237.258 215.161 237.859 216.269 238.967C217.376 240.075 217.977 241.336 218.072 242.75C218.166 244.164 217.412 245.672 215.809 247.275C214.253 248.831 212.757 249.573 211.319 249.503C209.881 249.432 208.608 248.843 207.501 247.735C206.393 246.627 205.803 245.354 205.733 243.916C205.662 242.479 206.404 240.982 207.96 239.426ZM221.253 252.719C222.856 251.116 224.364 250.362 225.778 250.456C227.193 250.551 228.454 251.152 229.561 252.26C230.669 253.367 231.27 254.628 231.365 256.043C231.459 257.457 230.705 258.965 229.102 260.568C227.546 262.124 226.049 262.866 224.612 262.795C223.174 262.725 221.901 262.135 220.793 261.028C219.685 259.92 219.096 258.647 219.026 257.209C218.955 255.771 219.697 254.275 221.253 252.719ZM234.546 266.012C236.148 264.409 237.657 263.655 239.071 263.749C240.485 263.843 241.746 264.444 242.854 265.552C243.962 266.66 244.563 267.921 244.657 269.335C244.752 270.75 243.997 272.258 242.395 273.861C240.839 275.416 239.342 276.159 237.904 276.088C236.467 276.017 235.194 275.428 234.086 274.32C232.978 273.213 232.389 271.94 232.318 270.502C232.248 269.064 232.99 267.568 234.546 266.012ZM247.838 279.305C249.441 277.702 250.95 276.948 252.364 277.042C253.778 277.136 255.039 277.737 256.147 278.845C257.255 279.953 257.856 281.214 257.95 282.628C258.044 284.042 257.29 285.551 255.687 287.154C254.132 288.709 252.635 289.452 251.197 289.381C249.759 289.31 248.487 288.721 247.379 287.613C246.271 286.505 245.682 285.233 245.611 283.795C245.54 282.357 246.283 280.86 247.838 279.305ZM269.556 301.022C271.159 299.419 272.667 298.665 274.081 298.759C275.495 298.854 276.756 299.455 277.864 300.562C278.972 301.67 279.573 302.931 279.667 304.345C279.762 305.76 279.007 307.268 277.405 308.871C275.849 310.427 274.352 311.169 272.915 311.098C271.477 311.028 270.204 310.438 269.096 309.33C267.988 308.223 267.399 306.95 267.328 305.512C267.258 304.074 268 302.578 269.556 301.022ZM282.849 314.315C284.451 312.712 285.96 311.958 287.374 312.052C288.788 312.146 290.049 312.747 291.157 313.855C292.265 314.963 292.866 316.224 292.96 317.638C293.054 319.052 292.3 320.561 290.697 322.164C289.142 323.719 287.645 324.462 286.207 324.391C284.77 324.32 283.497 323.731 282.389 322.623C281.281 321.515 280.692 320.243 280.621 318.805C280.55 317.367 281.293 315.87 282.849 314.315ZM296.141 327.608C297.744 326.005 299.253 325.251 300.667 325.345C302.081 325.439 303.342 326.04 304.45 327.148C305.558 328.256 306.159 329.517 306.253 330.931C306.347 332.345 305.593 333.854 303.99 335.456C302.435 337.012 300.938 337.755 299.5 337.684C298.062 337.613 296.79 337.024 295.682 335.916C294.574 334.808 293.985 333.535 293.914 332.098C293.843 330.66 294.586 329.163 296.141 327.608ZM309.434 340.9C311.037 339.298 312.545 338.543 313.96 338.638C315.374 338.732 316.635 339.333 317.743 340.441C318.85 341.549 319.451 342.81 319.546 344.224C319.64 345.638 318.886 347.146 317.283 348.749C315.727 350.305 314.231 351.047 312.793 350.977C311.355 350.906 310.082 350.317 308.974 349.209C307.867 348.101 307.277 346.828 307.207 345.39C307.136 343.953 307.878 342.456 309.434 340.9ZM331.151 362.618C332.754 361.015 334.263 360.261 335.677 360.355C337.091 360.449 338.352 361.05 339.46 362.158C340.568 363.266 341.169 364.527 341.263 365.941C341.357 367.355 340.603 368.864 339 370.467C337.445 372.022 335.948 372.765 334.51 372.694C333.072 372.623 331.8 372.034 330.692 370.926C329.584 369.818 328.995 368.546 328.924 367.108C328.853 365.67 329.596 364.173 331.151 362.618ZM344.444 375.91C346.047 374.308 347.555 373.553 348.97 373.648C350.384 373.742 351.645 374.343 352.753 375.451C353.86 376.559 354.462 377.82 354.556 379.234C354.65 380.648 353.896 382.157 352.293 383.759C350.737 385.315 349.241 386.057 347.803 385.987C346.365 385.916 345.092 385.327 343.985 384.219C342.877 383.111 342.287 381.838 342.217 380.401C342.146 378.963 342.889 377.466 344.444 375.91ZM357.737 389.203C359.34 387.6 360.848 386.846 362.262 386.94C363.677 387.035 364.938 387.636 366.045 388.744C367.153 389.851 367.754 391.112 367.849 392.527C367.943 393.941 367.189 395.449 365.586 397.052C364.03 398.608 362.533 399.35 361.096 399.279C359.658 399.209 358.385 398.619 357.277 397.512C356.17 396.404 355.58 395.131 355.51 393.693C355.439 392.256 356.181 390.759 357.737 389.203ZM371.03 402.496C372.633 400.893 374.141 400.139 375.555 400.233C376.969 400.327 378.23 400.929 379.338 402.036C380.446 403.144 381.047 404.405 381.141 405.819C381.236 407.234 380.481 408.742 378.879 410.345C377.323 411.9 375.826 412.643 374.388 412.572C372.951 412.502 371.678 411.912 370.57 410.804C369.462 409.697 368.873 408.424 368.802 406.986C368.732 405.548 369.474 404.052 371.03 402.496ZM390.505 439.126C392.188 437.443 391.934 435.506 389.742 433.314L386.157 429.729L393.221 423.81L400.624 431.214L399.097 432.741L393.306 426.95L389.105 430.429C389.968 431.037 390.732 431.673 391.396 432.338C392.853 433.795 393.673 435.265 393.857 436.75C394.055 438.221 393.504 439.607 392.203 440.908C390.901 442.209 389.381 442.853 387.642 442.838C385.916 442.81 384.361 442.103 382.975 440.717C381.589 439.331 380.804 437.853 380.62 436.284C380.45 434.7 380.981 433.292 382.211 432.062L383.887 433.738C382.727 434.898 382.565 436.248 383.399 437.79C383.668 438.256 384.021 438.709 384.46 439.147C385.365 440.052 386.376 440.498 387.493 440.484C388.625 440.455 389.629 440.003 390.505 439.126ZM393.697 447.875L401.439 455.618L399.891 457.166L390.472 447.748L392.445 445.775C394.015 444.205 395.761 443.647 397.685 444.099C398.307 444.241 398.943 444.453 399.594 444.736L403.285 446.305C405.18 447.126 406.743 446.92 407.973 445.69C408.652 445.011 408.97 444.226 408.928 443.335C408.899 442.43 408.461 441.554 407.612 440.705C406.778 439.871 405.915 439.362 405.024 439.178C404.148 439.008 403.313 439.234 402.521 439.856L400.676 438.011C401.906 436.922 403.264 436.498 404.749 436.738C406.234 436.979 407.648 437.771 408.991 439.114C410.349 440.472 411.084 441.942 411.197 443.526C411.311 445.11 410.823 446.447 409.734 447.536C408.659 448.61 407.521 449.183 406.318 449.254C405.131 449.339 403.858 449.084 402.5 448.49L398.724 446.878C397.762 446.482 396.928 446.298 396.221 446.327C395.542 446.355 394.913 446.659 394.333 447.239L393.697 447.875ZM422.06 459.48C420.646 460.895 418.885 461.1 416.778 460.096C417.386 461.184 417.676 462.266 417.648 463.341C417.62 464.416 417.174 465.385 416.312 466.247C415.138 467.421 413.745 467.923 412.133 467.754C410.534 467.57 409.007 466.749 407.55 465.293C406.094 463.836 405.224 462.217 404.941 460.435C404.687 458.653 405.245 457.076 406.617 455.704L408.357 457.444C407.48 458.377 407.119 459.403 407.275 460.52C407.444 461.651 408.024 462.712 409.014 463.702C410.004 464.692 411.001 465.222 412.005 465.293C413.038 465.363 413.9 465.052 414.593 464.359C415.3 463.652 415.611 462.818 415.527 461.856C415.456 460.88 414.834 459.806 413.66 458.632L412.133 457.104L413.469 455.768L414.508 456.807C415.527 457.826 416.531 458.434 417.521 458.632C418.525 458.816 419.366 458.568 420.045 457.889C420.724 457.211 421.042 456.412 421 455.492C420.957 454.573 420.54 453.717 419.748 452.925C418.956 452.134 418.15 451.61 417.33 451.356C416.538 451.101 415.675 451.257 414.742 451.822L413.002 450.083C414.332 449.065 415.689 448.683 417.075 448.937C418.475 449.178 419.819 449.941 421.106 451.228C422.407 452.53 423.149 453.965 423.333 455.535C423.545 457.104 423.121 458.42 422.06 459.48ZM427.296 459.964C428.371 460.785 429.559 461.251 430.86 461.365L432.218 462.722L418.832 476.108L417.177 474.453L428.569 463.062C427.409 462.807 426.433 462.326 425.642 461.619L427.296 459.964Z" fill="#C9C9C9"/>
<g clip-path="url(#clip0)">
<path d="M427.744 70.8238L403.062 88.3189L408.809 94.0663L433.494 76.5742L427.744 70.8238Z" fill="white"/>
<path d="M419.308 62.4347L399.296 71.1874L400.868 68.4157C402.374 64.6891 402.98 57.7797 401.648 51.7115L389.209 74.4455L395.301 80.5167L425.401 68.5192L419.308 62.4347Z" fill="white"/>
<path d="M409.387 55.5327C410.337 53.9141 409.752 52.5629 408.596 51.3153L399.685 42.4044L399.191 42.7503C404.444 51.367 404.979 60.0089 402.009 66.7867L409.387 55.5327Z" fill="white"/>
<path d="M441.1 92.2658C443.01 94.1166 443.962 95.8905 444.594 97.3747L444.869 98.1374L450.218 94.3442C449.507 92.7788 448.181 90.5363 445.954 88.31C440.275 82.6306 433.412 81.4879 429.281 85.556C426.215 88.548 427.413 93.1276 428.585 96.3192C429.79 99.5935 429.883 101.002 428.949 101.916C427.519 103.31 425.104 102.189 423.453 100.538C421.151 98.2365 420.246 96.6961 419.145 94.022L418.741 92.9443L413.213 96.8558C413.968 98.7908 415.943 101.78 418.493 104.383C424.535 110.425 431.287 111.524 435.709 107.186C438.13 104.815 438.426 101.453 436.605 96.6311C435.573 93.6421 434.993 91.7617 435.993 90.7861C436.869 89.9095 438.85 90.0159 441.1 92.2658Z" fill="white"/>
<path d="M465.467 108.595L461.027 104.154C459.648 102.775 458.246 102.124 456.265 102.893L428.405 113.686L434.44 119.721C434.44 119.721 438.024 118.107 438.816 117.761C439.477 118.422 445.332 124.295 446.167 125.13C445.603 126.038 443.709 128.99 443.709 128.99L449.041 134.322L465.467 108.595ZM444.787 115.099C446.47 114.361 452.97 111.495 452.97 111.495C452.882 111.522 454.658 110.744 455.749 110.247L454.318 112.453C454.318 112.453 450.385 118.589 449.561 119.874L444.787 115.099Z" fill="white"/>
</g>
<g filter="url(#filter2_d)">
<rect x="434.164" y="275.065" width="650" height="400" rx="15" transform="rotate(45 434.164 275.065)" fill="white"/>
</g>
<path d="M212.677 545.441C214.105 546.869 214.89 548.375 215.031 549.959C215.201 551.543 214.876 553.071 214.055 554.541L211.892 553.099C212.443 551.982 212.655 550.879 212.528 549.79C212.429 548.701 211.977 547.753 211.17 546.947C210.053 545.83 208.66 545.37 206.991 545.568C205.323 545.766 203.654 546.7 201.985 548.368C200.33 550.023 199.326 551.678 198.973 553.332C198.633 555.001 199.1 556.472 200.373 557.745C201.434 558.805 202.544 559.364 203.703 559.42C204.891 559.477 205.945 559.046 206.864 558.126L208.667 559.93C207.267 561.33 205.676 561.959 203.894 561.818C202.127 561.69 200.408 560.792 198.739 559.123C197.085 557.469 196.378 555.489 196.618 553.184C196.873 550.893 198.068 548.679 200.203 546.544C202.339 544.409 204.531 543.277 206.779 543.15C209.042 543.008 211.008 543.772 212.677 545.441ZM220.34 567.106C221.26 566.186 221.726 565.338 221.741 564.56C221.755 563.782 221.394 563.026 220.659 562.29C219.937 561.569 219.202 561.131 218.452 560.975C217.731 560.819 217.059 561.053 216.437 561.675L214.592 559.829C216.147 558.274 217.943 558.147 219.98 559.448C220.602 559.844 221.21 560.339 221.804 560.933C223.063 562.191 223.728 563.492 223.798 564.836C223.869 566.179 223.254 567.502 221.953 568.803L215.419 575.336L213.977 573.894L215.504 572.027C213.595 572.692 211.827 572.211 210.201 570.585C209.112 569.496 208.539 568.315 208.482 567.042C208.44 565.783 208.871 564.701 209.776 563.796C210.681 562.891 211.749 562.545 212.979 562.757C214.224 562.983 215.391 563.641 216.48 564.73C217.569 565.819 218.424 567.042 219.046 568.4L220.34 567.106ZM217.986 569.46C217.265 568.173 216.529 567.155 215.78 566.406C215.03 565.656 214.288 565.182 213.552 564.984C212.817 564.786 212.159 564.977 211.579 565.557C210.307 566.83 210.391 568.187 211.834 569.63C212.654 570.45 213.644 570.86 214.804 570.86C215.992 570.86 217.052 570.394 217.986 569.46ZM226.483 571.085C227.318 570.25 228.336 569.939 229.538 570.151C230.754 570.377 231.97 571.099 233.187 572.315C234.403 573.531 235.096 574.733 235.265 575.921C235.449 577.123 235.166 578.127 234.417 578.933L232.784 577.3C233.575 576.254 233.257 575.016 231.829 573.588C231.136 572.895 230.443 572.513 229.75 572.442C229.071 572.386 228.548 572.541 228.18 572.909C227.827 573.262 227.664 573.708 227.692 574.245C227.735 574.769 227.975 575.433 228.414 576.239L229.771 578.955C230.365 580.086 230.676 581.09 230.705 581.967C230.761 582.844 230.422 583.65 229.686 584.385C228.965 585.106 227.933 585.389 226.589 585.234C225.26 585.064 223.923 584.307 222.58 582.964C221.236 581.62 220.487 580.277 220.331 578.933C220.19 577.576 220.572 576.402 221.477 575.412L223.089 577.024C222.481 577.689 222.255 578.424 222.41 579.23C222.594 580.037 223.054 580.807 223.789 581.543C224.524 582.278 225.288 582.731 226.08 582.9C226.872 583.07 227.48 582.943 227.904 582.518C228.343 582.08 228.534 581.606 228.477 581.097C228.421 580.588 228.159 579.93 227.692 579.124L226.377 576.494C225.133 574.203 225.168 572.4 226.483 571.085ZM240.47 583.841C242.564 583.106 244.395 583.523 245.965 585.093C247.167 586.295 247.704 587.625 247.577 589.081C247.464 590.552 246.721 591.973 245.35 593.345L239.389 599.306L237.734 597.651L243.695 591.69C244.671 590.715 245.173 589.746 245.201 588.784C245.243 587.837 244.833 586.932 243.971 586.069C243.108 585.206 242.047 584.881 240.789 585.093C239.544 585.291 238.278 586.034 236.992 587.32L232.197 592.115L230.521 590.439L244.968 575.993L246.644 577.668L240.47 583.841ZM263.419 596.65L257.246 602.823L269.38 602.611L271.692 604.923L259.855 605.093L258.71 618.627L256.546 616.463L257.564 605.135L254.891 605.178L250.076 609.993L248.379 608.296L261.722 594.953L263.419 596.65ZM274.161 620.926C275.08 620.007 275.547 619.158 275.561 618.38C275.575 617.602 275.214 616.846 274.479 616.11C273.758 615.389 273.022 614.951 272.273 614.795C271.551 614.64 270.88 614.873 270.257 615.495L268.412 613.65C269.968 612.094 271.764 611.967 273.8 613.268C274.422 613.664 275.03 614.159 275.624 614.753C276.883 616.011 277.548 617.312 277.618 618.656C277.689 619.999 277.074 621.322 275.773 622.623L269.239 629.157L267.797 627.714L269.324 625.847C267.415 626.512 265.647 626.031 264.021 624.405C262.932 623.316 262.359 622.135 262.303 620.862C262.26 619.604 262.691 618.522 263.597 617.617C264.502 616.711 265.569 616.365 266.8 616.577C268.044 616.803 269.211 617.461 270.3 618.55C271.389 619.639 272.244 620.862 272.867 622.22L274.161 620.926ZM271.806 623.28C271.085 621.994 270.349 620.975 269.6 620.226C268.85 619.476 268.108 619.002 267.372 618.804C266.637 618.606 265.979 618.797 265.4 619.377C264.127 620.65 264.212 622.008 265.654 623.45C266.474 624.27 267.464 624.681 268.624 624.681C269.812 624.681 270.873 624.214 271.806 623.28ZM286.031 628.511C284.433 626.913 282.347 627.344 279.773 629.805L274.83 634.748L273.155 633.072L283.316 622.911L284.992 624.587L283.04 626.538C284.963 625.633 286.568 625.824 287.855 627.111C288.265 627.521 288.591 627.974 288.831 628.469L287.113 630.017C286.83 629.451 286.469 628.949 286.031 628.511Z" fill="black"/>
<g filter="url(#filter3_i)">
<rect x="673.873" y="797.616" width="80" height="60" rx="10" transform="rotate(45 673.873 797.616)" fill="#DCDCDC"/>
</g>
<path d="M235.537 514.491C237.14 512.888 238.649 512.134 240.063 512.228C241.477 512.322 242.738 512.923 243.846 514.031C244.954 515.139 245.555 516.4 245.649 517.814C245.743 519.228 244.989 520.737 243.386 522.34C241.831 523.895 240.334 524.638 238.896 524.567C237.458 524.496 236.185 523.907 235.078 522.799C233.97 521.692 233.381 520.419 233.31 518.981C233.239 517.543 233.982 516.047 235.537 514.491ZM248.83 527.784C250.433 526.181 251.941 525.427 253.356 525.521C254.77 525.615 256.031 526.216 257.139 527.324C258.246 528.432 258.847 529.693 258.942 531.107C259.036 532.521 258.282 534.03 256.679 535.633C255.123 537.188 253.627 537.931 252.189 537.86C250.751 537.789 249.478 537.2 248.37 536.092C247.263 534.984 246.673 533.712 246.603 532.274C246.532 530.836 247.274 529.339 248.83 527.784ZM262.123 541.076C263.726 539.474 265.234 538.719 266.648 538.814C268.063 538.908 269.324 539.509 270.431 540.617C271.539 541.725 272.14 542.986 272.234 544.4C272.329 545.814 271.575 547.323 269.972 548.925C268.416 550.481 266.919 551.223 265.482 551.153C264.044 551.082 262.771 550.493 261.663 549.385C260.555 548.277 259.966 547.004 259.895 545.567C259.825 544.129 260.567 542.632 262.123 541.076ZM275.416 554.369C277.018 552.766 278.527 552.012 279.941 552.106C281.355 552.201 282.616 552.802 283.724 553.91C284.832 555.017 285.433 556.278 285.527 557.693C285.622 559.107 284.867 560.615 283.265 562.218C281.709 563.774 280.212 564.516 278.774 564.445C277.337 564.375 276.064 563.786 274.956 562.678C273.848 561.57 273.259 560.297 273.188 558.859C273.118 557.422 273.86 555.925 275.416 554.369ZM297.133 576.087C298.736 574.484 300.244 573.729 301.658 573.824C303.073 573.918 304.334 574.519 305.441 575.627C306.549 576.735 307.15 577.996 307.245 579.41C307.339 580.824 306.585 582.333 304.982 583.935C303.426 585.491 301.929 586.233 300.492 586.163C299.054 586.092 297.781 585.503 296.673 584.395C295.566 583.287 294.976 582.014 294.906 580.577C294.835 579.139 295.577 577.642 297.133 576.087ZM310.426 589.379C312.028 587.777 313.537 587.022 314.951 587.117C316.365 587.211 317.626 587.812 318.734 588.92C319.842 590.027 320.443 591.288 320.537 592.703C320.632 594.117 319.877 595.625 318.275 597.228C316.719 598.784 315.222 599.526 313.784 599.456C312.347 599.385 311.074 598.796 309.966 597.688C308.858 596.58 308.269 595.307 308.198 593.869C308.128 592.432 308.87 590.935 310.426 589.379ZM323.718 602.672C325.321 601.069 326.83 600.315 328.244 600.409C329.658 600.504 330.919 601.105 332.027 602.212C333.135 603.32 333.736 604.581 333.83 605.995C333.924 607.41 333.17 608.918 331.567 610.521C330.012 612.077 328.515 612.819 327.077 612.748C325.639 612.678 324.367 612.088 323.259 610.981C322.151 609.873 321.562 608.6 321.491 607.162C321.42 605.724 322.163 604.228 323.718 602.672ZM337.011 615.965C338.614 614.362 340.123 613.608 341.537 613.702C342.951 613.796 344.212 614.397 345.32 615.505C346.428 616.613 347.029 617.874 347.123 619.288C347.217 620.702 346.463 622.211 344.86 623.814C343.305 625.369 341.808 626.112 340.37 626.041C338.932 625.97 337.659 625.381 336.552 624.273C335.444 623.166 334.855 621.893 334.784 620.455C334.713 619.017 335.456 617.52 337.011 615.965ZM358.729 637.682C360.331 636.079 361.84 635.325 363.254 635.419C364.668 635.514 365.929 636.115 367.037 637.223C368.145 638.33 368.746 639.591 368.84 641.006C368.934 642.42 368.18 643.928 366.577 645.531C365.022 647.087 363.525 647.829 362.087 647.758C360.65 647.688 359.377 647.098 358.269 645.991C357.161 644.883 356.572 643.61 356.501 642.172C356.43 640.734 357.173 639.238 358.729 637.682ZM372.021 650.975C373.624 649.372 375.133 648.618 376.547 648.712C377.961 648.806 379.222 649.407 380.33 650.515C381.438 651.623 382.039 652.884 382.133 654.298C382.227 655.713 381.473 657.221 379.87 658.824C378.315 660.379 376.818 661.122 375.38 661.051C373.942 660.98 372.67 660.391 371.562 659.283C370.454 658.176 369.865 656.903 369.794 655.465C369.723 654.027 370.466 652.531 372.021 650.975ZM385.314 664.268C386.917 662.665 388.425 661.911 389.84 662.005C391.254 662.099 392.515 662.7 393.623 663.808C394.73 664.916 395.331 666.177 395.426 667.591C395.52 669.005 394.766 670.514 393.163 672.117C391.607 673.672 390.111 674.415 388.673 674.344C387.235 674.273 385.962 673.684 384.854 672.576C383.747 671.468 383.157 670.196 383.087 668.758C383.016 667.32 383.758 665.823 385.314 664.268ZM398.607 677.56C400.21 675.958 401.718 675.203 403.132 675.298C404.547 675.392 405.808 675.993 406.915 677.101C408.023 678.209 408.624 679.47 408.719 680.884C408.813 682.298 408.059 683.807 406.456 685.409C404.9 686.965 403.403 687.707 401.966 687.637C400.528 687.566 399.255 686.977 398.147 685.869C397.039 684.761 396.45 683.488 396.38 682.051C396.309 680.613 397.051 679.116 398.607 677.56ZM418.083 714.191C419.766 712.508 419.511 710.57 417.319 708.378L413.734 704.793L420.798 698.875L428.201 706.278L426.674 707.805L420.883 702.014L416.683 705.493C417.545 706.101 418.309 706.738 418.974 707.402C420.43 708.859 421.25 710.33 421.434 711.815C421.632 713.286 421.081 714.671 419.78 715.973C418.479 717.274 416.958 717.917 415.219 717.903C413.494 717.875 411.938 717.168 410.552 715.782C409.166 714.396 408.381 712.918 408.197 711.348C408.028 709.764 408.558 708.357 409.788 707.127L411.464 708.802C410.304 709.962 410.142 711.313 410.976 712.854C411.245 713.321 411.598 713.773 412.037 714.212C412.942 715.117 413.953 715.562 415.07 715.548C416.202 715.52 417.206 715.067 418.083 714.191ZM421.274 722.94L429.017 730.682L427.468 732.231L418.049 722.812L420.022 720.839C421.592 719.27 423.339 718.711 425.262 719.164C425.884 719.305 426.52 719.517 427.171 719.8L430.862 721.37C432.757 722.19 434.32 721.985 435.55 720.755C436.229 720.076 436.547 719.291 436.505 718.4C436.477 717.495 436.038 716.618 435.19 715.77C434.355 714.935 433.493 714.426 432.602 714.242C431.725 714.072 430.89 714.299 430.098 714.921L428.253 713.075C429.483 711.987 430.841 711.562 432.326 711.803C433.811 712.043 435.225 712.835 436.568 714.179C437.926 715.536 438.662 717.007 438.775 718.591C438.888 720.175 438.4 721.511 437.311 722.6C436.236 723.675 435.098 724.248 433.896 724.318C432.708 724.403 431.435 724.149 430.077 723.555L426.301 721.943C425.34 721.547 424.505 721.363 423.798 721.391C423.119 721.419 422.49 721.723 421.91 722.303L421.274 722.94ZM449.637 734.545C448.223 735.959 446.463 736.164 444.355 735.16C444.963 736.249 445.253 737.331 445.225 738.406C445.197 739.48 444.751 740.449 443.889 741.312C442.715 742.486 441.322 742.988 439.71 742.818C438.112 742.634 436.584 741.814 435.128 740.357C433.671 738.901 432.801 737.281 432.518 735.499C432.264 733.718 432.822 732.141 434.194 730.769L435.934 732.508C435.057 733.442 434.696 734.467 434.852 735.584C435.022 736.716 435.601 737.776 436.591 738.766C437.581 739.756 438.578 740.287 439.582 740.357C440.615 740.428 441.477 740.117 442.17 739.424C442.878 738.717 443.189 737.882 443.104 736.921C443.033 735.945 442.411 734.87 441.237 733.696L439.71 732.169L441.046 730.833L442.086 731.872C443.104 732.89 444.108 733.498 445.098 733.696C446.102 733.88 446.943 733.633 447.622 732.954C448.301 732.275 448.619 731.476 448.577 730.557C448.534 729.638 448.117 728.782 447.325 727.99C446.533 727.198 445.727 726.675 444.907 726.42C444.115 726.166 443.252 726.321 442.319 726.887L440.579 725.147C441.909 724.129 443.266 723.747 444.652 724.002C446.052 724.242 447.396 725.006 448.683 726.293C449.984 727.594 450.726 729.029 450.91 730.599C451.122 732.169 450.698 733.484 449.637 734.545ZM454.873 735.029C455.948 735.849 457.136 736.316 458.437 736.429L459.795 737.787L446.409 751.172L444.755 749.518L456.146 738.126C454.986 737.872 454.011 737.391 453.219 736.684L454.873 735.029Z" fill="#5F5F5F"/>
<g clip-path="url(#clip1)">
<path d="M455.321 345.888L430.639 363.383L436.386 369.131L461.071 351.639L455.321 345.888Z" fill="black"/>
<path d="M446.885 337.499L426.874 346.252L428.445 343.48C429.951 339.754 430.557 332.844 429.225 326.776L416.786 349.51L422.878 355.581L452.978 343.584L446.885 337.499Z" fill="black"/>
<path d="M436.964 330.597C437.915 328.979 437.329 327.627 436.173 326.38L427.262 317.469L426.769 317.815C432.021 326.432 432.556 335.073 429.586 341.851L436.964 330.597Z" fill="black"/>
<path d="M468.677 367.33C470.587 369.181 471.539 370.955 472.172 372.439L472.447 373.202L477.795 369.409C477.084 367.843 475.758 365.601 473.532 363.375C467.852 357.695 460.989 356.552 456.858 360.621C453.793 363.613 454.99 368.192 456.162 371.384C457.367 374.658 457.46 376.067 456.526 376.98C455.096 378.374 452.681 377.254 451.03 375.603C448.728 373.301 447.823 371.761 446.722 369.086L446.319 368.009L440.79 371.92C441.545 373.855 443.52 376.844 446.07 379.448C452.112 385.489 458.864 386.589 463.286 382.25C465.707 379.879 466.003 376.518 464.182 371.696C463.15 368.707 462.57 366.826 463.57 365.851C464.446 364.974 466.427 365.08 468.677 367.33Z" fill="black"/>
<path d="M493.045 383.659L488.604 379.218C487.225 377.839 485.823 377.189 483.842 377.958L455.982 388.75L462.018 394.786C462.018 394.786 465.601 393.172 466.393 392.826C467.054 393.487 472.909 399.36 473.744 400.195C473.18 401.102 471.286 404.055 471.286 404.055L476.618 409.387L493.045 383.659ZM472.364 390.163C474.048 389.426 480.547 386.559 480.547 386.559C480.459 386.586 482.236 385.808 483.327 385.312L481.896 387.517C481.896 387.517 477.962 393.654 477.139 394.938L472.364 390.163Z" fill="black"/>
</g>
<defs>
<filter id="filter0_d" x="109.957" y="-13.7868" width="770.036" height="770.036" filterUnits="userSpaceOnUse" color-interpolation-filters="sRGB">
<feFlood flood-opacity="0" result="BackgroundImageFix"/>
<feColorMatrix in="SourceAlpha" type="matrix" values="0 0 0 0 0 0 0 0 0 0 0 0 0 0 0 0 0 0 127 0"/>
<feMorphology radius="5" operator="dilate" in="SourceAlpha" result="effect1_dropShadow"/>
<feOffset/>
<feGaussianBlur stdDeviation="7.5"/>
<feColorMatrix type="matrix" values="0 0 0 0 0.795833 0 0 0 0 0.795833 0 0 0 0 0.795833 0 0 0 0.25 0"/>
<feBlend mode="normal" in2="BackgroundImageFix" result="effect1_dropShadow"/>
<feBlend mode="normal" in="SourceGraphic" in2="effect1_dropShadow" result="shape"/>
</filter>
<filter id="filter1_i" x="608.011" y="526.694" width="90.7107" height="90.7107" filterUnits="userSpaceOnUse" color-interpolation-filters="sRGB">
<feFlood flood-opacity="0" result="BackgroundImageFix"/>
<feBlend mode="normal" in="SourceGraphic" in2="BackgroundImageFix" result="shape"/>
<feColorMatrix in="SourceAlpha" type="matrix" values="0 0 0 0 0 0 0 0 0 0 0 0 0 0 0 0 0 0 127 0" result="hardAlpha"/>
<feMorphology radius="2" operator="erode" in="SourceAlpha" result="effect1_innerShadow"/>
<feOffset/>
<feGaussianBlur stdDeviation="7.5"/>
<feComposite in2="hardAlpha" operator="arithmetic" k2="-1" k3="1"/>
<feColorMatrix type="matrix" values="0 0 0 0 0.708333 0 0 0 0 0.708333 0 0 0 0 0.708333 0 0 0 0.25 0"/>
<feBlend mode="normal" in2="shape" result="effect1_innerShadow"/>
</filter>
<filter id="filter2_d" x="137.534" y="261.278" width="770.036" height="770.036" filterUnits="userSpaceOnUse" color-interpolation-filters="sRGB">
<feFlood flood-opacity="0" result="BackgroundImageFix"/>
<feColorMatrix in="SourceAlpha" type="matrix" values="0 0 0 0 0 0 0 0 0 0 0 0 0 0 0 0 0 0 127 0"/>
<feMorphology radius="5" operator="dilate" in="SourceAlpha" result="effect1_dropShadow"/>
<feOffset/>
<feGaussianBlur stdDeviation="7.5"/>
<feColorMatrix type="matrix" values="0 0 0 0 0.795833 0 0 0 0 0.795833 0 0 0 0 0.795833 0 0 0 0.25 0"/>
<feBlend mode="normal" in2="BackgroundImageFix" result="effect1_dropShadow"/>
<feBlend mode="normal" in="SourceGraphic" in2="effect1_dropShadow" result="shape"/>
</filter>
<filter id="filter3_i" x="635.589" y="801.759" width="90.7107" height="90.7107" filterUnits="userSpaceOnUse" color-interpolation-filters="sRGB">
<feFlood flood-opacity="0" result="BackgroundImageFix"/>
<feBlend mode="normal" in="SourceGraphic" in2="BackgroundImageFix" result="shape"/>
<feColorMatrix in="SourceAlpha" type="matrix" values="0 0 0 0 0 0 0 0 0 0 0 0 0 0 0 0 0 0 127 0" result="hardAlpha"/>
<feMorphology radius="2" operator="erode" in="SourceAlpha" result="effect1_innerShadow"/>
<feOffset/>
<feGaussianBlur stdDeviation="7.5"/>
<feComposite in2="hardAlpha" operator="arithmetic" k2="-1" k3="1"/>
<feColorMatrix type="matrix" values="0 0 0 0 0.708333 0 0 0 0 0.708333 0 0 0 0 0.708333 0 0 0 0.25 0"/>
<feBlend mode="normal" in2="shape" result="effect1_innerShadow"/>
</filter>
<clipPath id="clip0">
<rect width="100" height="100" fill="white" transform="translate(424.264 17.6777) rotate(45)"/>
</clipPath>
<clipPath id="clip1">
<rect width="100" height="100" fill="white" transform="translate(451.841 292.742) rotate(45)"/>
</clipPath>
</defs>
</svg>
